<?xml version="1.0" standalone="no"?><!DOCTYPE svg PUBLIC "-//W3C//DTD SVG 1.1//EN" "http://www.w3.org/Graphics/SVG/1.1/DTD/svg11.dtd"><svg class="icon" width="128px" height="128.00px" viewBox="0 0 1024 1024" version="1.1" xmlns="http://www.w3.org/2000/svg"><path fill="#facf43" d="M811.147636 581.236364c-4.096 22.574545-10.682182 44.334545-19.712 65.233454a318.464 318.464 0 0 1-67.328 99.816727 318.464 318.464 0 0 1-99.793454 67.304728c-38.167273 16.523636-78.894545 24.785455-122.228364 24.785454-43.310545 0-84.061091-8.261818-122.228363-24.785454a324.957091 324.957091 0 0 1-69.399273-40.610909c69.003636-6.888727 147.898182-25.320727 229.841454-54.272l15.406546-5.562182 17.291636-6.516364a1248.837818 1248.837818 0 0 0 89.762909-38.446545l12.8 6.981818-3.490909-11.473455c52.503273-25.6 99.514182-53.527273 139.077818-82.455272zM502.085818 209.454545c43.310545 0 84.061091 8.261818 122.228364 24.785455 38.167273 16.523636 71.447273 38.958545 99.793454 67.304727a318.464 318.464 0 0 1 67.328 99.793455 299.589818 299.589818 0 0 1 23.272728 90.670545c-26.018909 22.993455-59.554909 47.243636-98.978909 70.958546 0.465455-3.421091 0.698182-6.912 0.698181-10.426182 0-59.345455-59.415273-107.706182-126.138181-107.706182-70.632727 0-126.254545 48.407273-126.254546 107.706182 0 42.449455 28.299636 79.127273 70.120727 96.698182-109.218909 40.215273-212.340364 59.229091-286.021818 59.648a326.167273 326.167273 0 0 1-35.374545-62.417455c-16.523636-38.167273-24.785455-79.127273-24.785455-122.88 0-43.333818 8.261818-84.061091 24.762182-122.251636 16.523636-38.167273 38.958545-71.447273 67.328-99.793455a318.464 318.464 0 0 1 99.793455-67.304727C418.024727 217.716364 458.775273 209.454545 502.085818 209.454545z m-56.645818 124.020364c-81.617455 0-148.48 55.598545-148.48 126.254546 0 40.750545 22.248727 74.24 59.415273 100.235636l-14.824728 44.637091 51.898182-25.995637c18.571636 3.653818 33.442909 7.424 51.991273 7.424 4.654545 0 9.262545-0.232727 13.824-0.558545a111.290182 111.290182 0 0 1-4.584727-31.138909c0.023273-64.861091 55.714909-117.504 126.208-117.504 4.817455 0 9.565091 0.372364 14.336 0.907636-12.846545-59.810909-76.8-104.261818-149.783273-104.261818z m103.912727 170.821818c11.264 0 18.594909 7.447273 18.594909 14.824728 0 7.493818-7.330909 14.848-18.618181 14.848-7.354182 0-14.824727-7.354182-14.824728-14.848 0-7.377455 7.470545-14.824727 14.848-14.824728z m81.664 0c11.170909 0 18.571636 7.447273 18.571637 14.824728 0 7.493818-7.400727 14.848-18.571637 14.848-7.330909 0-14.754909-7.354182-14.754909-14.848 0-7.377455 7.400727-14.824727 14.754909-14.824728zM501.061818 396.567273c11.217455 0 18.594909 7.377455 18.594909 18.548363 0 11.101091-7.377455 18.548364-18.594909 18.548364-11.077818 0-22.248727-7.447273-22.248727-18.548364 0-11.194182 11.147636-18.548364 22.248727-18.548363z m-103.889454 0c11.147636 0 18.525091 7.354182 18.525091 18.548363 0 11.101091-7.377455 18.548364-18.525091 18.548364-11.147636 0-22.341818-7.447273-22.341819-18.548364 0-11.170909 11.194182-18.548364 22.341819-18.548363z"  /><path fill="#facf43" d="M787.479273 325.911273a16.849455 16.849455 0 0 1 18.571636-14.941091c60.090182 6.516364 101.003636 27.578182 114.944 63.883636 35.002182 91.159273-125.533091 228.352-354.024727 316.043637-228.538182 87.738182-439.621818 93.184-474.600727 2.024727-12.032-31.348364-1.419636-67.863273 27.694545-106.24a16.849455 16.849455 0 0 1 26.856727 20.363636c-22.807273 30.021818-30.161455 55.389091-23.086545 73.797818 24.901818 64.930909 219.298909 59.880727 431.057454-21.410909 211.735273-81.268364 359.563636-207.592727 334.638546-272.500363-8.378182-21.76-38.237091-37.143273-87.109818-42.449455a16.849455 16.849455 0 0 1-14.941091-18.571636z"  /></svg>